<?xml version="1.0" standalone="no"?>
<!DOCTYPE svg PUBLIC "-//W3C//DTD SVG 20010904//EN"
 "http://www.w3.org/TR/2001/REC-SVG-20010904/DTD/svg10.dtd">
<svg version="1.0" xmlns="http://www.w3.org/2000/svg"
 width="400.000000pt" height="146.000000pt" viewBox="0 0 400.000000 146.000000"
 preserveAspectRatio="xMidYMid meet">
<metadata>
Created by potrace 1.16, written by Peter Selinger 2001-2019
</metadata>
<g transform="translate(0.000000,146.000000) scale(0.100000,-0.100000)"
fill="#000000" stroke="none">
<path d="M197 1416 c-32 -51 -146 -161 -176 -171 -23 -7 -26 -21 -11 -45 8
-13 17 -11 64 14 31 17 77 47 103 68 l48 37 3 -367 c3 -398 0 -427 -49 -500
-43 -64 -59 -98 -59 -127 l0 -27 33 33 c39 39 102 80 275 179 72 41 132 78
132 82 0 14 -48 20 -70 8 -12 -6 -24 -10 -26 -7 -2 2 -7 198 -11 436 l-6 431
-111 0 -111 0 -28 -44z"/>
<path d="M690 1352 l0 -110 -45 -33 c-24 -19 -45 -38 -45 -42 0 -17 35 -20 62
-4 l28 16 0 -363 0 -363 -68 5 c-85 6 -154 -13 -241 -66 -122 -73 -194 -165
-207 -262 -7 -58 14 -124 41 -128 18 -2 20 4 22 63 5 112 56 181 156 206 67
16 151 7 296 -35 158 -45 224 -47 302 -9 65 33 204 167 245 238 27 47 29 57
29 160 0 178 -21 213 -182 308 l-92 54 92 76 c168 140 199 170 192 190 -9 23
-202 150 -261 173 -56 21 -72 15 -194 -79 l-85 -66 -3 80 c-2 66 -6 80 -22 89
-19 10 -20 7 -20 -98z m226 -116 c86 -41 154 -83 154 -95 0 -23 -305 -281
-331 -281 -11 0 -12 340 -1 356 10 17 75 54 92 54 9 0 47 -15 86 -34z m-10
-451 c118 -34 153 -104 155 -306 2 -147 6 -145 -181 -84 l-150 49 0 184 0 185
63 -7 c34 -4 85 -13 113 -21z"/>
<path d="M2040 1192 l0 -107 107 -69 108 -68 -35 -18 c-19 -10 -54 -23 -77
-30 l-42 -13 -3 -263 c-3 -254 -4 -263 -25 -293 -13 -17 -23 -34 -23 -38 0 -5
30 -14 68 -21 40 -7 107 -32 169 -62 56 -28 104 -50 107 -50 3 0 36 19 73 43
37 24 98 56 135 72 l67 28 4 311 c2 171 8 328 12 349 7 39 7 39 -16 27 -13 -7
-33 -23 -45 -37 l-21 -24 -281 185 -282 185 0 -107z m367 -344 l83 -53 0 -247
c0 -231 -1 -247 -17 -241 -10 4 -56 23 -103 44 l-85 36 -3 244 c-2 221 -1 245
15 257 9 6 19 12 22 12 3 0 42 -24 88 -52z"/>
<path d="M1576 1036 c-34 -29 -89 -46 -145 -46 -26 0 -44 -5 -47 -14 -3 -8 17
-58 44 -112 l49 -99 -54 -70 c-76 -99 -105 -162 -111 -243 -4 -59 -1 -75 21
-117 29 -58 109 -140 129 -133 7 3 64 44 125 92 62 47 115 86 118 86 3 0 5
-12 5 -26 0 -40 29 -91 69 -124 19 -17 39 -30 42 -30 15 0 179 144 179 157 0
21 -29 27 -49 9 -52 -47 -60 -14 -63 271 l-2 251 32 61 c18 34 30 66 27 72
-10 15 -31 10 -51 -12 -16 -18 -26 -20 -67 -15 -27 4 -79 18 -115 32 -95 36
-103 37 -136 10z m-1 -131 c65 -19 120 -36 122 -38 2 -3 2 -45 1 -95 l-3 -90
-81 35 -80 35 -47 94 c-26 52 -43 94 -39 94 5 0 62 -16 127 -35z m49 -240 l73
-33 7 -47 c3 -26 6 -69 6 -95 0 -45 -2 -48 -60 -93 -33 -26 -64 -47 -69 -47
-17 0 -90 91 -102 127 -14 45 -7 147 14 196 19 44 17 44 131 -8z"/>
<path d="M3675 984 c-49 -24 -120 -55 -157 -70 l-68 -26 0 -278 c0 -266 -1
-278 -21 -304 -11 -14 -19 -31 -17 -37 2 -6 37 -20 78 -30 40 -10 104 -33 142
-50 l68 -32 139 93 c125 82 139 94 128 110 -6 10 -16 16 -22 12 -5 -3 -36 -23
-69 -43 l-59 -37 -66 25 c-36 14 -78 30 -93 35 -27 10 -28 13 -28 78 l0 68
182 124 c100 68 183 128 185 134 3 9 -150 190 -216 255 -15 15 -23 13 -106
-27z m155 -275 c0 -3 -45 -36 -100 -73 l-100 -66 0 177 0 178 100 -105 c54
-58 99 -108 100 -111z"/>
<path d="M3024 977 c-49 -24 -115 -54 -146 -66 l-57 -23 -3 -278 c-3 -277 -3
-279 -27 -304 -13 -14 -21 -31 -18 -38 2 -7 37 -21 76 -30 40 -9 103 -31 141
-49 38 -17 75 -29 82 -26 29 11 268 179 268 188 0 25 -36 18 -94 -20 l-63 -41
-89 33 -89 34 -3 71 -3 71 186 126 c102 69 185 128 185 131 0 11 -234 264
-245 264 -6 0 -52 -19 -101 -43z m106 -197 l67 -75 -98 -68 -98 -67 -3 174 -3
175 33 -32 c19 -18 64 -66 102 -107z"/>
</g>
</svg>
